<svg xmlns="http://www.w3.org/2000/svg" viewBox="0 0 64 64"><defs><style>.cls-1{isolation:isolate;}.cls-2{fill:#fb0;}.cls-3,.cls-6{fill:none;}.cls-4{fill:#e2e2e2;}.cls-5,.cls-9{fill:#fff;}.cls-6{stroke:#000;stroke-linecap:round;stroke-linejoin:round;stroke-width:2px;}.cls-7{opacity:0.25;mix-blend-mode:multiply;}.cls-8,.cls-9{mix-blend-mode:overlay;}</style></defs><title>Icon Color</title><g class="cls-1"><g id="Layer_1" data-name="Layer 1"><g id="Vector"><path class="cls-2" d="M48.7,29.29a11.27,11.27,0,0,1-3.1,7.78A10.8,10.8,0,0,0,38,34a11,11,0,0,0-3.1.44,11.22,11.22,0,0,0-8.4-7.92h0A11.28,11.28,0,0,1,48.7,29.29Z"/><line class="cls-3" x1="48.71" y1="18.01" x2="52.38" y2="14.33"/><path class="cls-4" d="M60.68,54.62s0,0,0,0a2.79,2.79,0,0,1-2.36,1.23H5.7a2.81,2.81,0,0,1-2.41-1.31,11.22,11.22,0,0,1-1.66-5.88,10.84,10.84,0,0,1,.19-2.07,11.2,11.2,0,0,1,11-9.17A11.24,11.24,0,0,1,24.07,26.21a10.69,10.69,0,0,1,2.42.27h0a11.22,11.22,0,0,1,8.4,7.92A11,11,0,0,1,38,34a10.8,10.8,0,0,1,7.61,3.1A9.82,9.82,0,0,1,47,38.69,11,11,0,0,1,62.25,46.6,12,12,0,0,1,60.68,54.62Z"/><line class="cls-3" x1="26.13" y1="18.01" x2="22.46" y2="14.33"/><path class="cls-3" d="M25.53,30.19a5.6,5.6,0,0,1,5.16,5.73"/><path class="cls-3" d="M34.25,38.17s6.38-3.47,9.66,3.28"/><ellipse class="cls-5" cx="41.23" cy="22.21" rx="0.93" ry="2.12" transform="translate(2.7 48.83) rotate(-62.95)"/><ellipse class="cls-5" cx="44.14" cy="24.86" rx="0.6" ry="1.37" transform="translate(-6.38 28.63) rotate(-33.66)"/></g><g id="Line"><path class="cls-6" d="M48.7,29.29a11.27,11.27,0,0,1-3.1,7.78A10.8,10.8,0,0,0,38,34a11,11,0,0,0-3.1.44,11.22,11.22,0,0,0-8.4-7.92h0A11.28,11.28,0,0,1,48.7,29.29Z"/><line class="cls-6" x1="37.42" y1="13.33" x2="37.42" y2="8.14"/><line class="cls-6" x1="53.38" y1="29.29" x2="58.57" y2="29.29"/><line class="cls-6" x1="48.71" y1="18.01" x2="52.38" y2="14.33"/><path class="cls-6" d="M60.68,54.62s0,0,0,0a2.79,2.79,0,0,1-2.36,1.23H5.7a2.81,2.81,0,0,1-2.41-1.31,11.22,11.22,0,0,1-1.66-5.88,10.84,10.84,0,0,1,.19-2.07,11.2,11.2,0,0,1,11-9.17A11.24,11.24,0,0,1,24.07,26.21a10.69,10.69,0,0,1,2.42.27h0a11.22,11.22,0,0,1,8.4,7.92A11,11,0,0,1,38,34a10.8,10.8,0,0,1,7.61,3.1A9.82,9.82,0,0,1,47,38.69,11,11,0,0,1,62.25,46.6,12,12,0,0,1,60.68,54.62Z"/><line class="cls-6" x1="26.13" y1="18.01" x2="22.46" y2="14.33"/><path class="cls-6" d="M25.53,30.19a5.6,5.6,0,0,1,5.16,5.73"/><path class="cls-6" d="M34.25,38.17s6.38-3.47,9.66,3.28"/><ellipse class="cls-3" cx="41.23" cy="22.21" rx="0.93" ry="2.12" transform="translate(2.7 48.83) rotate(-62.95)"/><ellipse class="cls-3" cx="44.14" cy="24.86" rx="0.6" ry="1.37" transform="translate(-6.38 28.63) rotate(-33.66)"/></g><g id="Shadow" class="cls-7"><path d="M5.7,55.86h5a2.81,2.81,0,0,1-2.41-1.31,11.23,11.23,0,0,1-1.67-5.88,10.84,10.84,0,0,1,.2-2.07,11.2,11.2,0,0,1,11-9.17A11.24,11.24,0,0,1,29.07,26.21a10.69,10.69,0,0,1,2.42.27,11.3,11.3,0,0,1,8.43-8.18,10.83,10.83,0,0,0-2.5-.29,11.29,11.29,0,0,0-10.93,8.47,10.69,10.69,0,0,0-2.42-.27A11.24,11.24,0,0,0,12.84,37.43a11.2,11.2,0,0,0-11,9.17,10.84,10.84,0,0,0-.2,2.07,11.23,11.23,0,0,0,1.67,5.88A2.81,2.81,0,0,0,5.7,55.86Z"/><path d="M54,38a11.31,11.31,0,0,0-2.49-.29h-.26a9.78,9.78,0,0,1,.75.95A11.74,11.74,0,0,1,54,38Z"/></g><g id="Highligth" class="cls-8"><path class="cls-9" d="M43.7,29.29a11.31,11.31,0,0,1-1.64,5.85,3.81,3.81,0,0,1,1.33.75,4.1,4.1,0,0,1,.94.92l.3.32a5.24,5.24,0,0,1,1.09.65c.17,0,.35,0,.52,0a8.07,8.07,0,0,0-.64-.67A11.29,11.29,0,0,0,37.42,18a10.89,10.89,0,0,0-2.5.29A11.26,11.26,0,0,1,43.7,29.29Z"/><path class="cls-9" d="M57.25,46.6a12,12,0,0,1-1.57,8s0,0,0,0a2.79,2.79,0,0,1-2.36,1.23h5a2.79,2.79,0,0,0,2.36-1.23s0,0,0,0a12,12,0,0,0,1.57-8A11,11,0,0,0,49,38,11,11,0,0,1,57.25,46.6Z"/></g></g></g></svg>